<svg width="40" height="40" viewBox="0 0 40 40" fill="none" xmlns="http://www.w3.org/2000/svg">
<g clipPath="url(#clip0_3973_553)">
<path d="M21 9L21.001 12.062C22.7632 12.2848 24.4013 13.0874 25.6572 14.3435C26.9131 15.5996 27.7155 17.2378 27.938 19H31V21L27.938 21.001C27.7153 22.7631 26.9128 24.401 25.6569 25.6569C24.401 26.9128 22.7631 27.7153 21.001 27.938L21 31H19V27.938C17.2378 27.7155 15.5996 26.9131 14.3435 25.6572C13.0874 24.4013 12.2848 22.7632 12.062 21.001L9 21V19H12.062C12.2846 17.2376 13.0871 15.5993 14.3432 14.3432C15.5993 13.0871 17.2376 12.2846 19 12.062V9H21ZM20 14C18.4087 14 16.8826 14.6321 15.7574 15.7574C14.6321 16.8826 14 18.4087 14 20C14 21.5913 14.6321 23.1174 15.7574 24.2426C16.8826 25.3679 18.4087 26 20 26C21.5913 26 23.1174 25.3679 24.2426 24.2426C25.3679 23.1174 26 21.5913 26 20C26 18.4087 25.3679 16.8826 24.2426 15.7574C23.1174 14.6321 21.5913 14 20 14ZM20 18C20.5304 18 21.0391 18.2107 21.4142 18.5858C21.7893 18.9609 22 19.4696 22 20C22 20.5304 21.7893 21.0391 21.4142 21.4142C21.0391 21.7893 20.5304 22 20 22C19.4696 22 18.9609 21.7893 18.5858 21.4142C18.2107 21.0391 18 20.5304 18 20C18 19.4696 18.2107 18.9609 18.5858 18.5858C18.9609 18.2107 19.4696 18 20 18Z" fill="#616161"/>
</g>
<defs>
<clipPath id="clip0_3973_553">
<rect width="24" height="24" fill="white" transform="translate(8 8)"/>
</clipPath>
</defs>
</svg>
