<svg width="15" height="16" viewBox="0 0 15 16" fill="none" xmlns="http://www.w3.org/2000/svg">
<path d="M4.375 3.625V1.75C4.375 1.58424 4.44085 1.42527 4.55806 1.30806C4.67527 1.19085 4.83424 1.125 5 1.125H10C10.1658 1.125 10.3247 1.19085 10.4419 1.30806C10.5592 1.42527 10.625 1.58424 10.625 1.75V3.625H13.125C13.2908 3.625 13.4497 3.69085 13.5669 3.80806C13.6842 3.92527 13.75 4.08424 13.75 4.25V13C13.75 13.1658 13.6842 13.3247 13.5669 13.4419C13.4497 13.5592 13.2908 13.625 13.125 13.625H1.875C1.70924 13.625 1.55027 13.5592 1.43306 13.4419C1.31585 13.3247 1.25 13.1658 1.25 13V4.25C1.25 4.08424 1.31585 3.92527 1.43306 3.80806C1.55027 3.69085 1.70924 3.625 1.875 3.625H4.375ZM2.5 10.5V12.375H12.5V10.5H2.5ZM2.5 9.25H12.5V4.875H2.5V9.25ZM5.625 2.375V3.625H9.375V2.375H5.625ZM6.875 7.375H8.125V8.625H6.875V7.375Z" fill="#8E8E8E"/>
</svg>
