<svg width="16" height="16" viewBox="0 0 16 16" fill="none" xmlns="http://www.w3.org/2000/svg">
<g id="Group">
<path id="Vector" d="M8 14.25C4.54813 14.25 1.75 11.4519 1.75 8C1.75 4.54813 4.54813 1.75 8 1.75C11.4519 1.75 14.25 4.54813 14.25 8C14.25 11.4519 11.4519 14.25 8 14.25ZM8 13C9.32608 13 10.5979 12.4732 11.5355 11.5355C12.4732 10.5979 13 9.32608 13 8C13 6.67392 12.4732 5.40215 11.5355 4.46447C10.5979 3.52678 9.32608 3 8 3C6.67392 3 5.40215 3.52678 4.46447 4.46447C3.52678 5.40215 3 6.67392 3 8C3 9.32608 3.52678 10.5979 4.46447 11.5355C5.40215 12.4732 6.67392 13 8 13ZM5.8125 9.25H9.25C9.33288 9.25 9.41237 9.21708 9.47097 9.15847C9.52958 9.09987 9.5625 9.02038 9.5625 8.9375C9.5625 8.85462 9.52958 8.77513 9.47097 8.71653C9.41237 8.65792 9.33288 8.625 9.25 8.625H6.75C6.3356 8.625 5.93817 8.46038 5.64515 8.16735C5.35212 7.87433 5.1875 7.4769 5.1875 7.0625C5.1875 6.6481 5.35212 6.25067 5.64515 5.95765C5.93817 5.66462 6.3356 5.5 6.75 5.5H7.375V4.25H8.625V5.5H10.1875V6.75H6.75C6.66712 6.75 6.58763 6.78292 6.52903 6.84153C6.47042 6.90013 6.4375 6.97962 6.4375 7.0625C6.4375 7.14538 6.47042 7.22487 6.52903 7.28347C6.58763 7.34208 6.66712 7.375 6.75 7.375H9.25C9.6644 7.375 10.0618 7.53962 10.3549 7.83265C10.6479 8.12567 10.8125 8.5231 10.8125 8.9375C10.8125 9.3519 10.6479 9.74933 10.3549 10.0424C10.0618 10.3354 9.6644 10.5 9.25 10.5H8.625V11.75H7.375V10.5H5.8125V9.25Z" fill="#8E8E8E"/>
</g>
</svg>
