<svg width="109" height="40" viewBox="0 0 109 40" fill="none" xmlns="http://www.w3.org/2000/svg">
<g clip-path="url(#clip0_2_793)">
<path d="M21 9L21.001 12.062C22.7632 12.2848 24.4013 13.0874 25.6572 14.3435C26.9131 15.5996 27.7155 17.2378 27.938 19H31V21L27.938 21.001C27.7153 22.7631 26.9128 24.401 25.6569 25.6569C24.401 26.9128 22.7631 27.7153 21.001 27.938L21 31H19V27.938C17.2378 27.7155 15.5996 26.9131 14.3435 25.6572C13.0874 24.4013 12.2848 22.7632 12.062 21.001L9 21V19H12.062C12.2846 17.2376 13.0871 15.5993 14.3432 14.3432C15.5993 13.0871 17.2376 12.2846 19 12.062V9H21ZM20 14C18.4087 14 16.8826 14.6321 15.7574 15.7574C14.6321 16.8826 14 18.4087 14 20C14 21.5913 14.6321 23.1174 15.7574 24.2426C16.8826 25.3679 18.4087 26 20 26C21.5913 26 23.1174 25.3679 24.2426 24.2426C25.3679 23.1174 26 21.5913 26 20C26 18.4087 25.3679 16.8826 24.2426 15.7574C23.1174 14.6321 21.5913 14 20 14ZM20 18C20.5304 18 21.0391 18.2107 21.4142 18.5858C21.7893 18.9609 22 19.4696 22 20C22 20.5304 21.7893 21.0391 21.4142 21.4142C21.0391 21.7893 20.5304 22 20 22C19.4696 22 18.9609 21.7893 18.5858 21.4142C18.2107 21.0391 18 20.5304 18 20C18 19.4696 18.2107 18.9609 18.5858 18.5858C18.9609 18.2107 19.4696 18 20 18Z" fill="#616161"/>
</g>
<path d="M45.1186 25H46.6548V20.5604H50.9801V19.2429H46.6548V16.1406H51.4325V14.8182H45.1186V25ZM63.4162 19.9091C63.4162 16.6527 61.4673 14.679 58.8324 14.679C56.1875 14.679 54.2436 16.6527 54.2436 19.9091C54.2436 23.1605 56.1875 25.1392 58.8324 25.1392C61.4673 25.1392 63.4162 23.1655 63.4162 19.9091ZM61.8949 19.9091C61.8949 22.3899 60.5824 23.7372 58.8324 23.7372C57.0774 23.7372 55.7699 22.3899 55.7699 19.9091C55.7699 17.4283 57.0774 16.081 58.8324 16.081C60.5824 16.081 61.8949 17.4283 61.8949 19.9091ZM66.5815 25H72.7314V23.6776H68.1177V14.8182H66.5815V25ZM75.7338 25H81.8837V23.6776H77.2701V14.8182H75.7338V25ZM93.3342 19.9091C93.3342 16.6527 91.3853 14.679 88.7504 14.679C86.1055 14.679 84.1616 16.6527 84.1616 19.9091C84.1616 23.1605 86.1055 25.1392 88.7504 25.1392C91.3853 25.1392 93.3342 23.1655 93.3342 19.9091ZM91.8129 19.9091C91.8129 22.3899 90.5004 23.7372 88.7504 23.7372C86.9954 23.7372 85.6879 22.3899 85.6879 19.9091C85.6879 17.4283 86.9954 16.081 88.7504 16.081C90.5004 16.081 91.8129 17.4283 91.8129 19.9091ZM98.37 25H99.9212L102.064 17.3736H102.143L104.286 25H105.832L108.661 14.8182H107.04L105.062 22.7081H104.967L102.904 14.8182H101.303L99.2401 22.7031H99.1456L97.1619 14.8182H95.5462L98.37 25Z" fill="#616161"/>
<defs>
<clipPath id="clip0_2_793">
<rect width="24" height="24" fill="white" transform="translate(8 8)"/>
</clipPath>
</defs>
</svg>
