<svg width="240" height="36" viewBox="0 0 240 36" fill="none" xmlns="http://www.w3.org/2000/svg">
<rect width="134" height="36" rx="8" fill="#F48FB1"/>
<g clip-path="url(#clip0_3786_2602)">
<path d="M10.5 23.8333H25.5V25.5H10.5V23.8333ZM18.8333 12.8567V22.1667H17.1667V12.8567L12.1075 17.9167L10.9292 16.7383L18 9.66667L25.0708 16.7375L23.8925 17.9158L18.8333 12.8583V12.8567Z" fill="white"/>
</g>
<path d="M45.4261 16H44.1932C44.1203 15.6454 43.9927 15.3338 43.8104 15.0653C43.6314 14.7969 43.4126 14.5715 43.1541 14.3892C42.8989 14.2036 42.6155 14.0644 42.304 13.9716C41.9924 13.8788 41.6676 13.8324 41.3295 13.8324C40.7131 13.8324 40.1546 13.9882 39.6541 14.2997C39.157 14.6113 38.7609 15.0703 38.4659 15.6768C38.1742 16.2834 38.0284 17.0275 38.0284 17.9091C38.0284 18.7907 38.1742 19.5348 38.4659 20.1413C38.7609 20.7479 39.157 21.2069 39.6541 21.5185C40.1546 21.83 40.7131 21.9858 41.3295 21.9858C41.6676 21.9858 41.9924 21.9394 42.304 21.8466C42.6155 21.7538 42.8989 21.6162 43.1541 21.4339C43.4126 21.2483 43.6314 21.0213 43.8104 20.7528C43.9927 20.4811 44.1203 20.1695 44.1932 19.8182H45.4261C45.3333 20.3385 45.1643 20.8042 44.919 21.2152C44.6738 21.6262 44.3688 21.9759 44.0043 22.2642C43.6397 22.5492 43.2304 22.7663 42.7763 22.9155C42.3255 23.0646 41.8433 23.1392 41.3295 23.1392C40.4612 23.1392 39.6889 22.9271 39.0128 22.5028C38.3366 22.0786 37.8047 21.4754 37.4169 20.6932C37.0291 19.911 36.8352 18.983 36.8352 17.9091C36.8352 16.8352 37.0291 15.9072 37.4169 15.125C37.8047 14.3428 38.3366 13.7396 39.0128 13.3153C39.6889 12.8911 40.4612 12.679 41.3295 12.679C41.8433 12.679 42.3255 12.7536 42.7763 12.9027C43.2304 13.0518 43.6397 13.2706 44.0043 13.5589C44.3688 13.844 44.6738 14.192 44.919 14.603C45.1643 15.0107 45.3333 15.4763 45.4261 16ZM48.6827 18.4062V23H47.5094V12.8182H48.6827V16.5568H48.7821C48.9611 16.1624 49.2296 15.8492 49.5875 15.6172C49.9488 15.3819 50.4294 15.2642 51.0293 15.2642C51.5497 15.2642 52.0054 15.3686 52.3965 15.5774C52.7876 15.7829 53.0909 16.0994 53.3063 16.527C53.525 16.9512 53.6344 17.4915 53.6344 18.1477V23H52.4611V18.2273C52.4611 17.6207 52.3037 17.1518 51.9888 16.8203C51.6773 16.4856 51.2447 16.3182 50.6912 16.3182C50.3068 16.3182 49.9621 16.3994 49.6571 16.5618C49.3555 16.7242 49.1169 16.9612 48.9412 17.2727C48.7689 17.5843 48.6827 17.9621 48.6827 18.4062ZM59.1332 23.1591C58.4438 23.1591 57.8389 22.995 57.3185 22.6669C56.8015 22.3388 56.3971 21.8797 56.1055 21.2898C55.8171 20.6998 55.6729 20.0104 55.6729 19.2216C55.6729 18.4261 55.8171 17.7318 56.1055 17.1385C56.3971 16.5452 56.8015 16.0845 57.3185 15.7564C57.8389 15.4283 58.4438 15.2642 59.1332 15.2642C59.8226 15.2642 60.4258 15.4283 60.9428 15.7564C61.4632 16.0845 61.8675 16.5452 62.1559 17.1385C62.4476 17.7318 62.5934 18.4261 62.5934 19.2216C62.5934 20.0104 62.4476 20.6998 62.1559 21.2898C61.8675 21.8797 61.4632 22.3388 60.9428 22.6669C60.4258 22.995 59.8226 23.1591 59.1332 23.1591ZM59.1332 22.1051C59.6568 22.1051 60.0877 21.9709 60.4258 21.7024C60.7638 21.4339 61.0141 21.081 61.1765 20.6435C61.3389 20.206 61.4201 19.732 61.4201 19.2216C61.4201 18.7112 61.3389 18.2356 61.1765 17.7947C61.0141 17.3539 60.7638 16.9976 60.4258 16.7259C60.0877 16.4541 59.6568 16.3182 59.1332 16.3182C58.6095 16.3182 58.1786 16.4541 57.8406 16.7259C57.5025 16.9976 57.2522 17.3539 57.0898 17.7947C56.9274 18.2356 56.8462 18.7112 56.8462 19.2216C56.8462 19.732 56.9274 20.206 57.0898 20.6435C57.2522 21.081 57.5025 21.4339 57.8406 21.7024C58.1786 21.9709 58.6095 22.1051 59.1332 22.1051ZM67.7367 23.1591C67.0473 23.1591 66.4424 22.995 65.9221 22.6669C65.405 22.3388 65.0007 21.8797 64.709 21.2898C64.4206 20.6998 64.2765 20.0104 64.2765 19.2216C64.2765 18.4261 64.4206 17.7318 64.709 17.1385C65.0007 16.5452 65.405 16.0845 65.9221 15.7564C66.4424 15.4283 67.0473 15.2642 67.7367 15.2642C68.4261 15.2642 69.0293 15.4283 69.5463 15.7564C70.0667 16.0845 70.4711 16.5452 70.7594 17.1385C71.0511 17.7318 71.1969 18.4261 71.1969 19.2216C71.1969 20.0104 71.0511 20.6998 70.7594 21.2898C70.4711 21.8797 70.0667 22.3388 69.5463 22.6669C69.0293 22.995 68.4261 23.1591 67.7367 23.1591ZM67.7367 22.1051C68.2604 22.1051 68.6912 21.9709 69.0293 21.7024C69.3674 21.4339 69.6176 21.081 69.78 20.6435C69.9424 20.206 70.0236 19.732 70.0236 19.2216C70.0236 18.7112 69.9424 18.2356 69.78 17.7947C69.6176 17.3539 69.3674 16.9976 69.0293 16.7259C68.6912 16.4541 68.2604 16.3182 67.7367 16.3182C67.213 16.3182 66.7821 16.4541 66.4441 16.7259C66.106 16.9976 65.8558 17.3539 65.6934 17.7947C65.531 18.2356 65.4498 18.7112 65.4498 19.2216C65.4498 19.732 65.531 20.206 65.6934 20.6435C65.8558 21.081 66.106 21.4339 66.4441 21.7024C66.7821 21.9709 67.213 22.1051 67.7367 22.1051ZM78.647 17.0739L77.593 17.3722C77.5268 17.1965 77.429 17.0258 77.2997 16.8601C77.1738 16.6911 77.0014 16.5518 76.7827 16.4425C76.5639 16.3331 76.2839 16.2784 75.9425 16.2784C75.4751 16.2784 75.0857 16.3861 74.7741 16.6016C74.4659 16.8137 74.3118 17.0838 74.3118 17.4119C74.3118 17.7036 74.4179 17.9339 74.63 18.103C74.8421 18.272 75.1735 18.4129 75.6243 18.5256L76.7578 18.804C77.4406 18.9697 77.9493 19.2232 78.2841 19.5646C78.6188 19.9027 78.7862 20.3385 78.7862 20.8722C78.7862 21.3097 78.6603 21.7008 78.4084 22.0455C78.1598 22.3902 77.8118 22.6619 77.3643 22.8608C76.9169 23.0597 76.3965 23.1591 75.8033 23.1591C75.0244 23.1591 74.3797 22.9901 73.8693 22.652C73.3589 22.3139 73.0357 21.8201 72.8999 21.1705L74.0135 20.892C74.1196 21.303 74.3201 21.6113 74.6151 21.8168C74.9134 22.0223 75.3028 22.125 75.7834 22.125C76.3303 22.125 76.7644 22.009 77.0859 21.777C77.4107 21.5417 77.5732 21.2599 77.5732 20.9318C77.5732 20.6667 77.4804 20.4446 77.2947 20.2656C77.1091 20.0833 76.8241 19.9474 76.4396 19.858L75.1669 19.5597C74.4676 19.3939 73.9538 19.1371 73.6257 18.7891C73.3009 18.4377 73.1385 17.9986 73.1385 17.4716C73.1385 17.0407 73.2595 16.6596 73.5014 16.3281C73.7467 15.9967 74.0798 15.7365 74.5007 15.5476C74.925 15.3587 75.4055 15.2642 75.9425 15.2642C76.6982 15.2642 77.2914 15.4299 77.7223 15.7614C78.1565 16.0928 78.4647 16.5303 78.647 17.0739ZM84.0041 23.1591C83.2683 23.1591 82.6336 22.9967 82.1 22.6719C81.5697 22.3438 81.1603 21.8864 80.872 21.2997C80.5869 20.7098 80.4444 20.0237 80.4444 19.2415C80.4444 18.4593 80.5869 17.7699 80.872 17.1733C81.1603 16.5734 81.5614 16.1061 82.0751 15.7713C82.5922 15.4332 83.1954 15.2642 83.8848 15.2642C84.2825 15.2642 84.6752 15.3305 85.063 15.4631C85.4508 15.5956 85.8038 15.8111 86.122 16.1094C86.4402 16.4044 86.6937 16.7955 86.8826 17.2827C87.0716 17.7699 87.166 18.3698 87.166 19.0824V19.5795H81.2797V18.5653H85.9728C85.9728 18.1345 85.8867 17.75 85.7143 17.4119C85.5453 17.0739 85.3033 16.8071 84.9885 16.6115C84.6769 16.416 84.309 16.3182 83.8848 16.3182C83.4174 16.3182 83.0131 16.4342 82.6717 16.6662C82.3336 16.8949 82.0734 17.1932 81.8912 17.5611C81.7089 17.929 81.6177 18.3234 81.6177 18.7443V19.4205C81.6177 19.9972 81.7172 20.486 81.916 20.8871C82.1182 21.2848 82.3983 21.5881 82.7562 21.7969C83.1142 22.0024 83.5301 22.1051 84.0041 22.1051C84.3123 22.1051 84.5907 22.062 84.8393 21.9759C85.0912 21.8864 85.3083 21.7538 85.4906 21.5781C85.6729 21.3991 85.8137 21.1771 85.9132 20.9119L87.0467 21.2301C86.9274 21.6146 86.7269 21.9527 86.4451 22.2443C86.1634 22.5327 85.8154 22.758 85.4011 22.9205C84.9868 23.0795 84.5211 23.1591 84.0041 23.1591ZM95.6355 23.179C95.1516 23.179 94.7124 23.0878 94.318 22.9055C93.9236 22.7199 93.6104 22.4531 93.3784 22.1051C93.1464 21.7538 93.0304 21.3295 93.0304 20.8324C93.0304 20.3949 93.1165 20.0402 93.2889 19.7685C93.4612 19.4934 93.6916 19.2779 93.9799 19.1222C94.2683 18.9664 94.5865 18.8504 94.9345 18.7741C95.2858 18.6946 95.6388 18.6316 95.9934 18.5852C96.4574 18.5256 96.8336 18.4808 97.122 18.451C97.4136 18.4179 97.6258 18.3632 97.7583 18.2869C97.8942 18.2107 97.9622 18.0781 97.9622 17.8892V17.8494C97.9622 17.3589 97.8279 16.9777 97.5595 16.706C97.2943 16.4342 96.8916 16.2983 96.3514 16.2983C95.7913 16.2983 95.3521 16.4209 95.0339 16.6662C94.7157 16.9115 94.492 17.1733 94.3627 17.4517L93.2491 17.054C93.448 16.59 93.7131 16.2287 94.0446 15.9702C94.3793 15.7083 94.7439 15.526 95.1383 15.4233C95.536 15.3172 95.9271 15.2642 96.3116 15.2642C96.5569 15.2642 96.8386 15.294 97.1568 15.3537C97.4783 15.41 97.7882 15.5277 98.0865 15.7067C98.3881 15.8857 98.6383 16.1558 98.8372 16.517C99.036 16.8783 99.1355 17.3622 99.1355 17.9688V23H97.9622V21.9659H97.9025C97.823 22.1316 97.6904 22.3089 97.5048 22.4979C97.3192 22.6868 97.0723 22.8475 96.764 22.9801C96.4558 23.1127 96.0796 23.179 95.6355 23.179ZM95.8145 22.125C96.2785 22.125 96.6696 22.0339 96.9877 21.8516C97.3092 21.6693 97.5512 21.4339 97.7136 21.1456C97.8793 20.8572 97.9622 20.554 97.9622 20.2358V19.1619C97.9125 19.2216 97.8031 19.2763 97.6341 19.326C97.4683 19.3724 97.2761 19.4138 97.0574 19.4503C96.8419 19.4834 96.6315 19.5133 96.426 19.5398C96.2238 19.563 96.0597 19.5829 95.9338 19.5994C95.6288 19.6392 95.3438 19.7038 95.0787 19.7933C94.8168 19.8795 94.6047 20.0104 94.4423 20.1861C94.2832 20.3584 94.2037 20.5937 94.2037 20.892C94.2037 21.2997 94.3545 21.608 94.6561 21.8168C94.961 22.0223 95.3471 22.125 95.8145 22.125ZM109.115 15.3636V16.358H104.999V15.3636H109.115ZM106.232 23V14.3097C106.232 13.8722 106.334 13.5076 106.54 13.2159C106.745 12.9242 107.012 12.7055 107.34 12.5597C107.668 12.4138 108.015 12.3409 108.379 12.3409C108.668 12.3409 108.903 12.3641 109.085 12.4105C109.268 12.4569 109.403 12.5 109.493 12.5398L109.155 13.554C109.095 13.5341 109.012 13.5092 108.906 13.4794C108.804 13.4496 108.668 13.4347 108.499 13.4347C108.111 13.4347 107.831 13.5324 107.658 13.728C107.489 13.9235 107.405 14.2102 107.405 14.5881V23H106.232ZM111.009 23V15.3636H112.183V23H111.009ZM111.606 14.0909C111.377 14.0909 111.18 14.013 111.014 13.8572C110.852 13.7015 110.771 13.5142 110.771 13.2955C110.771 13.0767 110.852 12.8894 111.014 12.7337C111.18 12.5779 111.377 12.5 111.606 12.5C111.835 12.5 112.03 12.5779 112.193 12.7337C112.358 12.8894 112.441 13.0767 112.441 13.2955C112.441 13.5142 112.358 13.7015 112.193 13.8572C112.03 14.013 111.835 14.0909 111.606 14.0909ZM115.755 12.8182V23H114.582V12.8182H115.755ZM121.356 23.1591C120.62 23.1591 119.985 22.9967 119.452 22.6719C118.921 22.3438 118.512 21.8864 118.224 21.2997C117.939 20.7098 117.796 20.0237 117.796 19.2415C117.796 18.4593 117.939 17.7699 118.224 17.1733C118.512 16.5734 118.913 16.1061 119.427 15.7713C119.944 15.4332 120.547 15.2642 121.236 15.2642C121.634 15.2642 122.027 15.3305 122.415 15.4631C122.802 15.5956 123.155 15.8111 123.474 16.1094C123.792 16.4044 124.045 16.7955 124.234 17.2827C124.423 17.7699 124.518 18.3698 124.518 19.0824V19.5795H118.631V18.5653H123.324C123.324 18.1345 123.238 17.75 123.066 17.4119C122.897 17.0739 122.655 16.8071 122.34 16.6115C122.028 16.416 121.661 16.3182 121.236 16.3182C120.769 16.3182 120.365 16.4342 120.023 16.6662C119.685 16.8949 119.425 17.1932 119.243 17.5611C119.06 17.929 118.969 18.3234 118.969 18.7443V19.4205C118.969 19.9972 119.069 20.486 119.268 20.8871C119.47 21.2848 119.75 21.5881 120.108 21.7969C120.466 22.0024 120.882 22.1051 121.356 22.1051C121.664 22.1051 121.942 22.062 122.191 21.9759C122.443 21.8864 122.66 21.7538 122.842 21.5781C123.024 21.3991 123.165 21.1771 123.265 20.9119L124.398 21.2301C124.279 21.6146 124.078 21.9527 123.797 22.2443C123.515 22.5327 123.167 22.758 122.753 22.9205C122.338 23.0795 121.873 23.1591 121.356 23.1591Z" fill="white"/>
<path d="M151.307 12.8182V23H150.114L144.565 15.0057H144.466V23H143.233V12.8182H144.426L149.994 20.8324H150.094V12.8182H151.307ZM156.967 23.1591C156.278 23.1591 155.673 22.995 155.153 22.6669C154.635 22.3388 154.231 21.8797 153.939 21.2898C153.651 20.6998 153.507 20.0104 153.507 19.2216C153.507 18.4261 153.651 17.7318 153.939 17.1385C154.231 16.5452 154.635 16.0845 155.153 15.7564C155.673 15.4283 156.278 15.2642 156.967 15.2642C157.657 15.2642 158.26 15.4283 158.777 15.7564C159.297 16.0845 159.702 16.5452 159.99 17.1385C160.282 17.7318 160.427 18.4261 160.427 19.2216C160.427 20.0104 160.282 20.6998 159.99 21.2898C159.702 21.8797 159.297 22.3388 158.777 22.6669C158.26 22.995 157.657 23.1591 156.967 23.1591ZM156.967 22.1051C157.491 22.1051 157.922 21.9709 158.26 21.7024C158.598 21.4339 158.848 21.081 159.01 20.6435C159.173 20.206 159.254 19.732 159.254 19.2216C159.254 18.7112 159.173 18.2356 159.01 17.7947C158.848 17.3539 158.598 16.9976 158.26 16.7259C157.922 16.4541 157.491 16.3182 156.967 16.3182C156.443 16.3182 156.013 16.4541 155.675 16.7259C155.336 16.9976 155.086 17.3539 154.924 17.7947C154.761 18.2356 154.68 18.7112 154.68 19.2216C154.68 19.732 154.761 20.206 154.924 20.6435C155.086 21.081 155.336 21.4339 155.675 21.7024C156.013 21.9709 156.443 22.1051 156.967 22.1051ZM170.056 15.3636V16.358H165.94V15.3636H170.056ZM167.173 23V14.3097C167.173 13.8722 167.276 13.5076 167.481 13.2159C167.687 12.9242 167.953 12.7055 168.282 12.5597C168.61 12.4138 168.956 12.3409 169.321 12.3409C169.609 12.3409 169.844 12.3641 170.027 12.4105C170.209 12.4569 170.345 12.5 170.434 12.5398L170.096 13.554C170.037 13.5341 169.954 13.5092 169.848 13.4794C169.745 13.4496 169.609 13.4347 169.44 13.4347C169.052 13.4347 168.772 13.5324 168.6 13.728C168.431 13.9235 168.346 14.2102 168.346 14.5881V23H167.173ZM171.951 23V15.3636H173.124V23H171.951ZM172.547 14.0909C172.319 14.0909 172.122 14.013 171.956 13.8572C171.793 13.7015 171.712 13.5142 171.712 13.2955C171.712 13.0767 171.793 12.8894 171.956 12.7337C172.122 12.5779 172.319 12.5 172.547 12.5C172.776 12.5 172.972 12.5779 173.134 12.7337C173.3 12.8894 173.383 13.0767 173.383 13.2955C173.383 13.5142 173.3 13.7015 173.134 13.8572C172.972 14.013 172.776 14.0909 172.547 14.0909ZM176.696 12.8182V23H175.523V12.8182H176.696ZM182.297 23.1591C181.561 23.1591 180.927 22.9967 180.393 22.6719C179.863 22.3438 179.453 21.8864 179.165 21.2997C178.88 20.7098 178.737 20.0237 178.737 19.2415C178.737 18.4593 178.88 17.7699 179.165 17.1733C179.453 16.5734 179.854 16.1061 180.368 15.7713C180.885 15.4332 181.488 15.2642 182.178 15.2642C182.575 15.2642 182.968 15.3305 183.356 15.4631C183.744 15.5956 184.097 15.8111 184.415 16.1094C184.733 16.4044 184.987 16.7955 185.176 17.2827C185.365 17.7699 185.459 18.3698 185.459 19.0824V19.5795H179.573V18.5653H184.266C184.266 18.1345 184.18 17.75 184.007 17.4119C183.838 17.0739 183.596 16.8071 183.281 16.6115C182.97 16.416 182.602 16.3182 182.178 16.3182C181.71 16.3182 181.306 16.4342 180.965 16.6662C180.627 16.8949 180.366 17.1932 180.184 17.5611C180.002 17.929 179.911 18.3234 179.911 18.7443V19.4205C179.911 19.9972 180.01 20.486 180.209 20.8871C180.411 21.2848 180.691 21.5881 181.049 21.7969C181.407 22.0024 181.823 22.1051 182.297 22.1051C182.605 22.1051 182.884 22.062 183.132 21.9759C183.384 21.8864 183.601 21.7538 183.784 21.5781C183.966 21.3991 184.107 21.1771 184.206 20.9119L185.34 21.2301C185.22 21.6146 185.02 21.9527 184.738 22.2443C184.456 22.5327 184.108 22.758 183.694 22.9205C183.28 23.0795 182.814 23.1591 182.297 23.1591ZM194.784 23.1591C194.068 23.1591 193.451 22.9901 192.934 22.652C192.417 22.3139 192.019 21.8482 191.741 21.255C191.463 20.6617 191.323 19.9839 191.323 19.2216C191.323 18.446 191.466 17.7616 191.751 17.1683C192.039 16.5717 192.44 16.1061 192.954 15.7713C193.471 15.4332 194.074 15.2642 194.764 15.2642C195.301 15.2642 195.785 15.3636 196.215 15.5625C196.646 15.7614 196.999 16.0398 197.274 16.3977C197.549 16.7557 197.72 17.1733 197.786 17.6506H196.613C196.524 17.3026 196.325 16.9943 196.017 16.7259C195.712 16.4541 195.301 16.3182 194.784 16.3182C194.326 16.3182 193.925 16.4375 193.58 16.6761C193.239 16.9115 192.972 17.2446 192.78 17.6754C192.591 18.103 192.497 18.6051 192.497 19.1818C192.497 19.7718 192.589 20.2855 192.775 20.723C192.964 21.1605 193.229 21.5002 193.57 21.7422C193.915 21.9841 194.32 22.1051 194.784 22.1051C195.088 22.1051 195.365 22.0521 195.614 21.946C195.862 21.84 196.073 21.6875 196.245 21.4886C196.418 21.2898 196.54 21.0511 196.613 20.7727H197.786C197.72 21.2235 197.556 21.6295 197.294 21.9908C197.036 22.3487 196.693 22.6338 196.265 22.8459C195.841 23.0547 195.347 23.1591 194.784 23.1591ZM200.925 18.4062V23H199.752V12.8182H200.925V16.5568H201.024C201.203 16.1624 201.472 15.8492 201.83 15.6172C202.191 15.3819 202.672 15.2642 203.271 15.2642C203.792 15.2642 204.248 15.3686 204.639 15.5774C205.03 15.7829 205.333 16.0994 205.548 16.527C205.767 16.9512 205.877 17.4915 205.877 18.1477V23H204.703V18.2273C204.703 17.6207 204.546 17.1518 204.231 16.8203C203.919 16.4856 203.487 16.3182 202.933 16.3182C202.549 16.3182 202.204 16.3994 201.899 16.5618C201.598 16.7242 201.359 16.9612 201.183 17.2727C201.011 17.5843 200.925 17.9621 200.925 18.4062ZM211.375 23.1591C210.686 23.1591 210.081 22.995 209.561 22.6669C209.044 22.3388 208.639 21.8797 208.348 21.2898C208.059 20.6998 207.915 20.0104 207.915 19.2216C207.915 18.4261 208.059 17.7318 208.348 17.1385C208.639 16.5452 209.044 16.0845 209.561 15.7564C210.081 15.4283 210.686 15.2642 211.375 15.2642C212.065 15.2642 212.668 15.4283 213.185 15.7564C213.705 16.0845 214.11 16.5452 214.398 17.1385C214.69 17.7318 214.836 18.4261 214.836 19.2216C214.836 20.0104 214.69 20.6998 214.398 21.2898C214.11 21.8797 213.705 22.3388 213.185 22.6669C212.668 22.995 212.065 23.1591 211.375 23.1591ZM211.375 22.1051C211.899 22.1051 212.33 21.9709 212.668 21.7024C213.006 21.4339 213.256 21.081 213.419 20.6435C213.581 20.206 213.662 19.732 213.662 19.2216C213.662 18.7112 213.581 18.2356 213.419 17.7947C213.256 17.3539 213.006 16.9976 212.668 16.7259C212.33 16.4541 211.899 16.3182 211.375 16.3182C210.852 16.3182 210.421 16.4541 210.083 16.7259C209.745 16.9976 209.494 17.3539 209.332 17.7947C209.17 18.2356 209.088 18.7112 209.088 19.2216C209.088 19.732 209.17 20.206 209.332 20.6435C209.494 21.081 209.745 21.4339 210.083 21.7024C210.421 21.9709 210.852 22.1051 211.375 22.1051ZM222.286 17.0739L221.232 17.3722C221.165 17.1965 221.068 17.0258 220.938 16.8601C220.812 16.6911 220.64 16.5518 220.421 16.4425C220.203 16.3331 219.923 16.2784 219.581 16.2784C219.114 16.2784 218.724 16.3861 218.413 16.6016C218.105 16.8137 217.95 17.0838 217.95 17.4119C217.95 17.7036 218.057 17.9339 218.269 18.103C218.481 18.272 218.812 18.4129 219.263 18.5256L220.396 18.804C221.079 18.9697 221.588 19.2232 221.923 19.5646C222.258 19.9027 222.425 20.3385 222.425 20.8722C222.425 21.3097 222.299 21.7008 222.047 22.0455C221.798 22.3902 221.45 22.6619 221.003 22.8608C220.556 23.0597 220.035 23.1591 219.442 23.1591C218.663 23.1591 218.018 22.9901 217.508 22.652C216.998 22.3139 216.674 21.8201 216.539 21.1705L217.652 20.892C217.758 21.303 217.959 21.6113 218.254 21.8168C218.552 22.0223 218.941 22.125 219.422 22.125C219.969 22.125 220.403 22.009 220.725 21.777C221.049 21.5417 221.212 21.2599 221.212 20.9318C221.212 20.6667 221.119 20.4446 220.933 20.2656C220.748 20.0833 220.463 19.9474 220.078 19.858L218.806 19.5597C218.106 19.3939 217.593 19.1371 217.264 18.7891C216.94 18.4377 216.777 17.9986 216.777 17.4716C216.777 17.0407 216.898 16.6596 217.14 16.3281C217.385 15.9967 217.718 15.7365 218.139 15.5476C218.564 15.3587 219.044 15.2642 219.581 15.2642C220.337 15.2642 220.93 15.4299 221.361 15.7614C221.795 16.0928 222.103 16.5303 222.286 17.0739ZM227.643 23.1591C226.907 23.1591 226.272 22.9967 225.739 22.6719C225.208 22.3438 224.799 21.8864 224.511 21.2997C224.226 20.7098 224.083 20.0237 224.083 19.2415C224.083 18.4593 224.226 17.7699 224.511 17.1733C224.799 16.5734 225.2 16.1061 225.714 15.7713C226.231 15.4332 226.834 15.2642 227.523 15.2642C227.921 15.2642 228.314 15.3305 228.702 15.4631C229.089 15.5956 229.442 15.8111 229.761 16.1094C230.079 16.4044 230.332 16.7955 230.521 17.2827C230.71 17.7699 230.805 18.3698 230.805 19.0824V19.5795H224.918V18.5653H229.612C229.612 18.1345 229.525 17.75 229.353 17.4119C229.184 17.0739 228.942 16.8071 228.627 16.6115C228.316 16.416 227.948 16.3182 227.523 16.3182C227.056 16.3182 226.652 16.4342 226.31 16.6662C225.972 16.8949 225.712 17.1932 225.53 17.5611C225.348 17.929 225.256 18.3234 225.256 18.7443V19.4205C225.256 19.9972 225.356 20.486 225.555 20.8871C225.757 21.2848 226.037 21.5881 226.395 21.7969C226.753 22.0024 227.169 22.1051 227.643 22.1051C227.951 22.1051 228.229 22.062 228.478 21.9759C228.73 21.8864 228.947 21.7538 229.129 21.5781C229.312 21.3991 229.452 21.1771 229.552 20.9119L230.685 21.2301C230.566 21.6146 230.366 21.9527 230.084 22.2443C229.802 22.5327 229.454 22.758 229.04 22.9205C228.625 23.0795 228.16 23.1591 227.643 23.1591ZM234.013 18.4062V23H232.839V15.3636H233.973V16.5568H234.072C234.251 16.169 234.523 15.8575 234.888 15.6222C235.252 15.3835 235.723 15.2642 236.3 15.2642C236.817 15.2642 237.269 15.3703 237.657 15.5824C238.045 15.7912 238.346 16.1094 238.562 16.5369C238.777 16.9612 238.885 17.4981 238.885 18.1477V23H237.712V18.2273C237.712 17.6274 237.556 17.16 237.244 16.8253C236.933 16.4872 236.505 16.3182 235.962 16.3182C235.587 16.3182 235.252 16.3994 234.957 16.5618C234.666 16.7242 234.435 16.9612 234.266 17.2727C234.097 17.5843 234.013 17.9621 234.013 18.4062Z" fill="#616161"/>
<defs>
<clipPath id="clip0_3786_2602">
<rect width="20" height="20" fill="white" transform="translate(8 8)"/>
</clipPath>
</defs>
</svg>
